<?xml version="1.0" encoding="UTF-8"?>
<!DOCTYPE svg PUBLIC "-//W3C//DTD SVG 1.1//EN" "http://www.w3.org/Graphics/SVG/1.1/DTD/svg11.dtd">
<svg xmlns="http://www.w3.org/2000/svg" version="1.1" width="880px" height="394px" style="shape-rendering:geometricPrecision; text-rendering:geometricPrecision; image-rendering:optimizeQuality; fill-rule:evenodd; clip-rule:evenodd" xmlns:xlink="http://www.w3.org/1999/xlink">
<g><path style="opacity:1" fill="#00a350" d="M 364.5,3.5 C 381.395,3.68255 396.062,9.34922 408.5,20.5C 415.555,29.7383 418.722,40.0717 418,51.5C 425.138,59.1059 431.304,67.4393 436.5,76.5C 441.546,66.2685 448.379,57.2685 457,49.5C 457.141,34.3846 464.308,24.2179 478.5,19C 487.599,16.5145 496.766,14.6812 506,13.5C 507.011,14.3366 508.178,14.67 509.5,14.5C 507.187,30.6242 499.187,43.1242 485.5,52C 476.945,54.4681 468.278,55.1348 459.5,54C 450.542,62.2761 444.042,72.1094 440,83.5C 439.5,90.8258 439.334,98.1591 439.5,105.5C 477.168,105.333 514.835,105.5 552.5,106C 553.833,107.333 553.833,108.667 552.5,110C 514.835,110.5 477.168,110.667 439.5,110.5C 433.791,141.318 446.457,156.484 477.5,156C 478.833,157.333 478.833,158.667 477.5,160C 472.167,160.667 466.833,160.667 461.5,160C 457.565,158.517 453.565,157.351 449.5,156.5C 450.597,164.02 454.264,170.02 460.5,174.5C 468.491,174.061 476.491,174.561 484.5,176C 489.473,178.489 494.14,181.489 498.5,185C 507.581,187.559 516.247,186.559 524.5,182C 527.167,180.667 529.167,178.667 530.5,176C 531.833,175.333 533.167,175.333 534.5,176C 535.451,176.718 535.617,177.551 535,178.5C 525.619,189.091 513.786,193.424 499.5,191.5C 502.623,201.131 508.29,208.964 516.5,215C 524.613,219.854 532.946,224.021 541.5,227.5C 540.833,228.833 539.833,229.833 538.5,230.5C 530.037,227.101 521.704,223.435 513.5,219.5C 513.954,227.029 516.287,233.863 520.5,240C 519.941,242.188 518.607,242.854 516.5,242C 510.47,233.569 507.637,224.069 508,213.5C 500.579,206.247 495.579,197.58 493,187.5C 485.528,179.466 477.028,177.133 467.5,180.5C 477.06,190.547 478.894,202.213 473,215.5C 471.475,218.563 469.475,221.23 467,223.5C 466.5,222.5 466,221.5 465.5,220.5C 466.884,215.951 468.717,211.618 471,207.5C 472.402,200.682 471.402,194.348 468,188.5C 460.243,181.746 453.243,174.413 447,166.5C 445.855,161.917 445.189,157.251 445,152.5C 442.659,149.329 440.159,146.329 437.5,143.5C 433.739,157.198 436.239,169.864 445,181.5C 447.166,188.35 446.332,194.85 442.5,201C 443.961,214.164 440.961,226.497 433.5,238C 431.681,238.783 430.348,238.283 429.5,236.5C 435.699,227.1 438.699,216.767 438.5,205.5C 433.811,208.128 428.811,210.295 423.5,212C 421.359,212.884 419.693,212.384 418.5,210.5C 424.3,206.763 430.3,203.263 436.5,200C 443.404,191.437 443.07,183.104 435.5,175C 432.48,167.421 430.48,159.588 429.5,151.5C 420.407,162.73 409.074,171.23 395.5,177C 394.299,177.903 393.465,179.069 393,180.5C 390.382,194.981 394.049,207.648 404,218.5C 404.72,220.112 404.554,221.612 403.5,223C 402.833,223.667 402.167,223.667 401.5,223C 396.781,217.846 392.948,212.012 390,205.5C 388.032,197.482 387.199,189.482 387.5,181.5C 376.616,186.28 367.116,192.947 359,201.5C 357.318,204.864 355.651,208.198 354,211.5C 351.584,220.629 349.75,229.795 348.5,239C 347.256,239.456 346.423,238.956 346,237.5C 344.997,225.396 347.497,213.896 353.5,203C 351.293,201.368 348.96,201.368 346.5,203C 335.837,207.499 328.837,215.333 325.5,226.5C 323.192,227.948 321.859,227.282 321.5,224.5C 325.165,211.672 333.165,202.839 345.5,198C 350.264,197.152 354.931,195.985 359.5,194.5C 362.857,190.313 366.857,186.813 371.5,184C 385.113,177.737 398.279,170.57 411,162.5C 411.688,161.668 411.521,161.002 410.5,160.5C 395.307,164.436 382.14,161.103 371,150.5C 370.233,147.097 371.399,146.097 374.5,147.5C 381.203,154.227 389.369,157.561 399,157.5C 407.971,157.178 416.304,154.845 424,150.5C 433.748,138.968 437.248,125.635 434.5,110.5C 398.498,110.667 362.498,110.5 326.5,110C 325.167,108.667 325.167,107.333 326.5,106C 362.498,105.5 398.498,105.333 434.5,105.5C 434.723,97.4529 434.223,89.4529 433,81.5C 428.739,73.0079 423.572,65.1745 417.5,58C 415.99,57.1502 414.49,56.3169 413,55.5C 395.476,58.9507 380.81,53.9507 369,40.5C 361.656,29.8901 356.823,18.5568 354.5,6.5C 354.709,5.91395 355.043,5.41395 355.5,5C 358.695,4.81948 361.695,4.31948 364.5,3.5 Z M 413.5,41.5 C 412.833,41.8333 412.167,42.1667 411.5,42.5C 400.342,30.0054 387.675,19.3388 373.5,10.5C 394.598,11.3059 407.931,21.6392 413.5,41.5 Z M 361.5,11.5 C 372.189,16.0161 382.189,21.8494 391.5,29C 398.734,35.3988 405.067,42.5655 410.5,50.5C 391.817,53.5452 377.65,46.8785 368,30.5C 364.452,24.6399 362.285,18.3065 361.5,11.5 Z M 487.5,20.5 C 488.978,20.238 490.311,20.5713 491.5,21.5C 481.441,27.8686 472.107,35.202 463.5,43.5C 463.505,36.0121 466.838,30.1788 473.5,26C 478.317,24.2341 482.983,22.4008 487.5,20.5 Z M 500.5,21.5 C 501.675,21.281 502.675,21.6143 503.5,22.5C 498.872,35.291 490.372,44.291 478,49.5C 474.608,50.6009 470.941,50.6009 467,49.5C 466.333,48.5 466.333,47.5 467,46.5C 477.393,37.0616 488.559,28.7283 500.5,21.5 Z"/></g>
<g><path style="opacity:0.103" fill="#048a47" d="M 413.5,41.5 C 413.289,43.4241 412.623,43.7574 411.5,42.5C 412.167,42.1667 412.833,41.8333 413.5,41.5 Z"/></g>
<g><path style="opacity:1" fill="#007a3d" d="M 716.5,287.5 C 730.287,286.13 743.287,288.63 755.5,295C 763.163,299.99 767.83,306.99 769.5,316C 769.241,317.261 768.574,318.261 767.5,319C 759.833,319.667 752.167,319.667 744.5,319C 741.167,317 738.5,314.333 736.5,311C 729.66,306.878 722.66,306.545 715.5,310C 713.083,311.663 711.25,313.829 710,316.5C 708.393,329.096 708.059,341.763 709,354.5C 710.062,360.562 713.562,364.395 719.5,366C 725.167,366.667 730.833,366.667 736.5,366C 739.562,364.939 742.062,363.106 744,360.5C 745.125,353.712 748.959,349.546 755.5,348C 746.482,347.832 737.482,347.332 728.5,346.5C 726.447,339.771 728.447,334.604 734.5,331C 744.833,329 755.167,329 765.5,331C 767.049,332.214 768.215,333.714 769,335.5C 773.205,368.463 758.705,385.796 725.5,387.5C 711.022,387.848 698.856,382.848 689,372.5C 686.196,368.557 684.196,364.223 683,359.5C 681.507,346.534 681.173,333.534 682,320.5C 683.427,307.465 689.927,297.965 701.5,292C 706.577,290.32 711.577,288.82 716.5,287.5 Z"/></g>
<g><path style="opacity:1" fill="#003d2b" d="M 36.5,288.5 C 54.1367,285.656 68.9701,290.656 81,303.5C 84.4586,307.52 85.6253,312.02 84.5,317C 76.5,317.667 68.5,317.667 60.5,317C 54.2002,308.459 46.2002,306.459 36.5,311C 31.1667,315 31.1667,319 36.5,323C 47.9247,327.107 59.5914,330.44 71.5,333C 87.6981,340.907 92.5315,353.407 86,370.5C 81.5801,377.589 75.4135,382.423 67.5,385C 54.5968,389.206 41.5968,389.54 28.5,386C 17.0186,383.2 9.18531,376.367 5,365.5C 4.23101,362.901 4.39768,360.401 5.5,358C 12.8333,357.333 20.1667,357.333 27.5,358C 30.2795,360.865 33.2795,363.532 36.5,366C 43.181,367.951 49.8476,367.951 56.5,366C 62.5828,363.588 63.9161,359.588 60.5,354C 57.8333,352.667 55.1667,351.333 52.5,350C 43.4571,347.823 34.4571,345.489 25.5,343C 9.99296,336.487 4.15963,324.987 8,308.5C 14.174,297.004 23.674,290.337 36.5,288.5 Z"/></g>
<g><path style="opacity:1" fill="#008340" d="M 822.5,288.5 C 835.778,286.722 848.111,289.222 859.5,296C 865.91,300.666 869.91,306.832 871.5,314.5C 871.392,315.442 871.059,316.275 870.5,317C 862.5,317.667 854.5,317.667 846.5,317C 840.2,308.459 832.2,306.459 822.5,311C 817.229,314.959 817.229,318.959 822.5,323C 833.925,327.107 845.591,330.44 857.5,333C 873.698,340.907 878.531,353.407 872,370.5C 867.58,377.589 861.413,382.423 853.5,385C 840.597,389.206 827.597,389.54 814.5,386C 803.019,383.2 795.185,376.367 791,365.5C 790.231,362.901 790.398,360.401 791.5,358C 798.833,357.333 806.167,357.333 813.5,358C 816.28,360.865 819.28,363.532 822.5,366C 829.181,367.951 835.848,367.951 842.5,366C 848.583,363.588 849.916,359.588 846.5,354C 843.833,352.667 841.167,351.333 838.5,350C 829.457,347.823 820.457,345.489 811.5,343C 795.993,336.487 790.16,324.987 794,308.5C 800.174,297.004 809.674,290.337 822.5,288.5 Z"/></g>
<g><path style="opacity:1" fill="#00462d" d="M 123.5,289.5 C 144.076,289.173 164.576,289.507 185,290.5C 185.809,296.749 185.642,302.916 184.5,309C 166.833,309.333 149.167,309.667 131.5,310C 133.624,311.122 135.457,312.622 137,314.5C 137.333,317.833 137.667,321.167 138,324.5C 138.5,326.333 139.667,327.5 141.5,328C 152.833,328.333 164.167,328.667 175.5,329C 176.641,334.75 176.807,340.584 176,346.5C 160.908,347.325 145.741,347.825 130.5,348C 132.519,348.45 134.352,349.283 136,350.5C 137.19,354.381 137.857,358.381 138,362.5C 138.465,363.931 139.299,365.097 140.5,366C 155.5,366.333 170.5,366.667 185.5,367C 186.833,373.333 186.833,379.667 185.5,386C 161.594,386.827 137.761,386.66 114,385.5C 113.333,356.167 113.333,326.833 114,297.5C 115.961,293.287 119.127,290.62 123.5,289.5 Z"/></g>
<g><path style="opacity:1" fill="#004e31" d="M 223.5,289.5 C 244.076,289.173 264.576,289.507 285,290.5C 285.809,296.749 285.642,302.916 284.5,309C 266.833,309.333 249.167,309.667 231.5,310C 233.624,311.122 235.457,312.622 237,314.5C 237.333,317.833 237.667,321.167 238,324.5C 238.5,326.333 239.667,327.5 241.5,328C 252.833,328.333 264.167,328.667 275.5,329C 276.641,334.75 276.807,340.584 276,346.5C 260.908,347.325 245.741,347.825 230.5,348C 232.519,348.45 234.352,349.283 236,350.5C 237.19,354.381 237.857,358.381 238,362.5C 238.465,363.931 239.299,365.097 240.5,366C 255.5,366.333 270.5,366.667 285.5,367C 286.833,373.333 286.833,379.667 285.5,386C 261.594,386.827 237.761,386.66 214,385.5C 213.333,356.167 213.333,326.833 214,297.5C 215.961,293.287 219.127,290.62 223.5,289.5 Z"/></g>
<g><path style="opacity:1" fill="#005733" d="M 324.5,289.5 C 338.199,289.216 351.865,289.716 365.5,291C 382.105,293.605 392.272,303.105 396,319.5C 398.417,335.744 397.417,351.744 393,367.5C 384.582,381.339 372.082,387.839 355.5,387C 341.468,387.781 327.468,387.614 313.5,386.5C 313.333,356.831 313.5,327.165 314,297.5C 316.271,293.044 319.771,290.378 324.5,289.5 Z M 332.5,311.5 C 341.324,310.343 350.324,310.176 359.5,311C 365,312.5 368.5,316 370,321.5C 372.075,333.9 371.742,346.233 369,358.5C 364.67,365.119 358.503,367.786 350.5,366.5C 347.5,366.333 344.5,366.167 341.5,366C 340.692,365.692 340.025,365.192 339.5,364.5C 338.681,347.877 338.181,331.211 338,314.5C 336.736,312.393 334.903,311.393 332.5,311.5 Z"/></g>
<g><path style="opacity:1" fill="#006035" d="M 433.5,289.5 C 438.762,289.195 443.928,289.529 449,290.5C 449.029,314.896 449.696,339.229 451,363.5C 451.75,364.126 452.584,364.626 453.5,365C 467.167,365.333 480.833,365.667 494.5,366C 495.833,372.667 495.833,379.333 494.5,386C 471.261,386.827 448.094,386.66 425,385.5C 424.333,355.833 424.333,326.167 425,296.5C 426.851,292.843 429.684,290.51 433.5,289.5 Z"/></g>
<g><path style="opacity:1" fill="#006938" d="M 528.5,289.5 C 532.846,289.334 537.179,289.501 541.5,290C 542.667,290.5 543.5,291.333 544,292.5C 544.667,323.167 544.667,353.833 544,384.5C 543.5,385.667 542.667,386.5 541.5,387C 534.5,387.667 527.5,387.667 520.5,387C 519.584,386.626 518.75,386.126 518,385.5C 517.333,356.833 517.333,328.167 518,299.5C 519.56,293.996 523.06,290.662 528.5,289.5 Z"/></g>
<g><path style="opacity:1" fill="#00723b" d="M 581.5,289.5 C 585.514,289.334 589.514,289.501 593.5,290C 595.286,290.785 596.786,291.951 598,293.5C 608.418,310.004 619.085,326.337 630,342.5C 630.333,327.833 630.667,313.167 631,298.5C 634.058,291.634 639.391,288.634 647,289.5C 649.424,289.53 651.757,289.863 654,290.5C 654.667,322.167 654.667,353.833 654,385.5C 647.248,386.645 640.414,386.811 633.5,386C 621.876,369.253 610.376,352.42 599,335.5C 597.515,352.346 597.015,369.346 597.5,386.5C 589.391,387.114 581.558,386.447 574,384.5C 573.333,356.167 573.333,327.833 574,299.5C 575.213,295.131 577.713,291.797 581.5,289.5 Z"/></g>
</svg>
